<svg width="120" height="150" viewBox="0 0 150 150" fill="none" xmlns="http://www.w3.org/2000/svg"><g id="Logo"><g id="felogo"><g id="fe"><g id="Group"><g id="eyefe"><path d="M44.9 59.1C44.9 59.6 45 60 45.3 60.5C45.6 60.9 46.1 61.2 46.6 61.4C47.2 61.6 47.8 61.7 48.4 61.6C49 61.5 49.6 61.3 50 61C50.4 60.7 50.8 60.3 50.9 59.8C51 59.3 51 58.9 50.8 58.4C50.6 58 50.2 57.6 49.7 57.3C49.2 57 48.6 56.9 48 56.8C47.2 56.8 46.4 57 45.8 57.4C45.3 57.9 44.9 58.5 44.9 59.1Z" fill="white"></path></g><g id="bodyfe"><path d="M143.3 60.9C140.9 68.4 137 75.4 132.2 81.7C129.9 83.8 127.1 85.4 124.1 86.6C127.4 81.3 130 75.3 128.4 78.5C125.8 83.8 112.5 88.9 112.5 88.8C112.3 88.9 112.1 88.9 111.9 89C108.9 89.9 105.9 90.9 103.1 92C98 97.4 90.9 101.3 83.1 103.4C75.2 105.5 66.9 105.8 58.8 104.3C50.7 102.8 43.2 99.3 37.6 94.1C32 88.9 28.7 82.1 28.8 75C28.8 72.5 29.2 69.9 30 67.5C27.3 65.7 24.7 63.8 22.1 61.8C25.8 61.6 29.5 61.3 33.1 61.1C37 55.3 43.1 50.9 50.3 48.1C57.4 45.4 65.2 44.3 73 44.9C80.8 45.5 88.2 47.6 94.7 51.3C101.1 55 106.1 60.2 108.6 66.3C94.9 67 75.7 69.6 53.1 76.7C70.2 77.3 87.3 77.2 104.3 76.3C110.3 75.9 116.3 75.3 122.2 74.3C123.9 74 125.5 73.6 127.1 73.1C127.6 72.8 128.1 72.5 128.5 72.1C128.9 71.7 129.1 71.2 129.3 70.7C129.5 70 129.7 69.3 129.7 68.6C129.7 66 129.2 63.4 128.1 61C123.3 50 113.3 41.5 101.9 36.4C90.3 31.3 78.2 29.2 65.9 29.5C53.6 29.8 41.1 32.7 30 39.4C18.9 46 10.5 56.6 8.4 68.9C6.2 81.2 10.8 93.7 19.9 102.8C29 112 41.2 117.2 53.5 119.3C65.9 121.4 78 120.8 90.1 117.7C102.1 114.5 113.6 108.5 121.7 99.1C121.4 99.2 139.3 83.4 143.3 60.9Z" fill="white"></path></g></g></g></g></g></svg>