<svg data-name="Triplo Logo" xmlns="http://www.w3.org/2000/svg" width="33.958" height="33.93" viewBox="0 0 33.958 33.93"><path data-name="Path 16638" d="M33.541 27.691l-3.217-3.217a14.76 14.76 0 003.389-9.425A14.85 14.85 0 0018.882.216a14.764 14.764 0 00-9.426 3.39L7.548 1.7 6.267.416a1.428 1.428 0 00-2.017 0 1.425 1.425 0 000 2.017l.314.313A18.732 18.732 0 000 15.046a18.9 18.9 0 0018.882 18.88 18.738 18.738 0 0012.3-4.562l.341.341a1.422 1.422 0 001.008.417 1.426 1.426 0 001.009-.417 1.428 1.428 0 00.001-2.014zM18.882 3.07a11.993 11.993 0 0111.98 11.98 11.993 11.993 0 01-11.98 11.978A11.992 11.992 0 016.902 15.05a11.992 11.992 0 0111.98-11.98zm0 28.007A16.046 16.046 0 012.856 15.05 15.907 15.907 0 016.588 4.77l.854.854a14.766 14.766 0 00-3.388 9.426 14.848 14.848 0 0014.831 14.831 14.764 14.764 0 009.426-3.389l.854.854a15.91 15.91 0 01-10.283 3.731z" fill="#ffc610"></path><path data-name="Path 16639" d="M24.257 9.357c-.175-.175-1.436.275-1.743.483a30.73 30.73 0 00-2.194 2.161l-.736-.268.194-.167h-.012l.018-.015.147-.126.142-.121.007-.007a.261.261 0 00.084-.068.273.273 0 00.056-.137.557.557 0 00-.233-.473.484.484 0 00-.609-.063l-.026.028-.536.607-.174.194c-.424-.152-.842-.3-1.236-.445l.194-.167h-.01l.058-.05a.271.271 0 00.093-.074.286.286 0 00.06-.142.45.45 0 00-.046-.233.671.671 0 00-.174-.251.551.551 0 00-.5-.146.32.32 0 00-.154.074l-.028.03-.349.4-.174.2-1.334-.478a11.545 11.545 0 00-1.522-.485l-.482.3.765.516 1.011.683a2.879 2.879 0 00-.29.319.016.016 0 00.02.023 2.727 2.727 0 00.381-.255l.008-.008.963.652a3.353 3.353 0 00-.26.288.016.016 0 00.02.023 2.572 2.572 0 00.356-.233l.73.493-.01.008a2.748 2.748 0 00-.309.336.016.016 0 00.02.023 2.537 2.537 0 00.381-.255l.036-.033.645.435.129.155-.048.04a2.863 2.863 0 00-.309.336.016.016 0 00.02.023 2.387 2.387 0 00.381-.255l.043-.04.659.789.086-.07-.23.243.01-.01-.01.01c-.2.21-.387.417-.569.622l-.108.119c-.172.194-.341.386-.5.571l-.02.025c-.164.192-.314.376-.46.556l-.1.124c-.121.151-.235.3-.343.439l-2.792-.482-.078-.013-.538.52 2.3 1.279.169.093c-.3.525-.477.937-.386 1.023s.444-.065.957-.4l.117.2 1.331 2.269.508-.549-.015-.078-.561-2.856a39.42 39.42 0 002.651-2.34l.478.409-.043.041a2.764 2.764 0 00-.258.379.016.016 0 00.023.02 2.666 2.666 0 00.339-.3c.015-.017.026-.033.04-.05l.156.132.429.65-.033.035a2.55 2.55 0 00-.26.377.016.016 0 00.023.02 2.66 2.66 0 00.339-.3l.008-.01.485.735a2.952 2.952 0 00-.238.353.017.017 0 00.023.022 2.829 2.829 0 00.291-.258l.642.971-.008.008a2.532 2.532 0 00-.258.377.016.016 0 00.023.022 2.849 2.849 0 00.321-.288l.674 1.019.506.77.3-.478a11.453 11.453 0 00-.47-1.526l-.463-1.34.2-.172.4-.344.013-.012.012-.012a.315.315 0 00.076-.154.549.549 0 00-.141-.5.633.633 0 00-.25-.177.466.466 0 00-.232-.05.292.292 0 00-.142.058.257.257 0 00-.076.093l-.051.058v-.01l-.169.19-.432-1.241.2-.17.611-.53.03-.027a.484.484 0 00-.056-.611.553.553 0 00-.47-.238.262.262 0 00-.139.055.3.3 0 00-.07.083v.007l-.122.141-.127.146-.017.017v-.012l-.167.192-.136-.384c.29-.3.574-.6.837-.884-.265.281-.549.581-.837.882l-.012-.031c1.094-1.125 2.11-2.208 2.218-2.381.195-.362.608-1.521.438-1.691zm-7.124 8.236v-.007a42.355 42.355 0 002.626-2.338l.025.02c-.93.89-1.855 1.695-2.651 2.325z" fill="#ffc610"></path></svg>